<?xml version="1.0" encoding="UTF-8" standalone="no"?>
<!-- Created with Inkscape (http://www.inkscape.org/) -->
<svg
   xmlns:svg="http://www.w3.org/2000/svg"
   xmlns="http://www.w3.org/2000/svg"
   version="1.0"
   width="206"
   height="218"
   id="svg1321">
  <defs
     id="defs1324" />
  <path
     d="M 46.13445,176.51463 C 45.950847,178.70327 42.798487,178.7694 41.070402,178.77865 C 37.421922,178.79819 34.067403,178.17279 32.915135,176.37835 C 31.702248,174.48949 35.62594,172.10332 39.388512,171.99258 C 42.249821,171.90836 46.348717,173.96046 46.13445,176.51463 z"
     transform="translate(1.226534,1.771665)"
     id="path17229"
     style="fill:#ffffff;fill-opacity:1;fill-rule:evenodd;stroke:#000000;stroke-width:3;stroke-linecap:round;stroke-linejoin:miter;stroke-miterlimit:4;stroke-dasharray:none;stroke-opacity:1" />
  <path
     d="M 16.161137,184.35321 C 16.351312,184.0455 29.447336,185.10725 35.745533,181.6053 C 40.704773,178.84784 39.721019,170.97732 42.077591,170.9575 C 43.692421,170.94277 44.764611,189.62528 19.364845,187.68065 C 18.933199,187.64742 16.284832,184.25223 16.161137,184.35321 z"
     id="path10118"
     style="fill:#000505;fill-opacity:1" />
  <path
     d="M 143.77699,62.547195 C 154.91198,53.950549 183.37491,35.258986 188.28815,31.226576 C 188.55594,36.522366 188.10511,37.993592 187.35446,39.058935 C 182.69207,45.675944 148.42237,66.790463 142.41344,69.944505 C 143.26691,66.026104 143.46776,64.814064 143.77699,62.547195 z"
     id="path1338"
     style="fill:#000000;fill-opacity:1;fill-rule:nonzero;stroke:none;stroke-width:1px;stroke-linecap:butt;stroke-linejoin:miter;stroke-opacity:1" />
  <path
     d="M 176.43944,55.341839 C 176.90595,56.309532 185.58256,46.778493 185.74345,47.175589 C 187.03801,58.013679 190.79552,75.028692 194.43715,80.33595 C 198.27933,85.93548 212.54368,90.07903 200.68333,113.39895 C 204.15323,93.7679 191.62669,88.48359 191.54473,87.09575 C 200.29784,175.93669 195.29024,189.9673 186.08365,204.26544 C 190.3529,147.93267 186.64964,113.89337 176.43944,55.341839 z"
     id="path1336"
     style="fill:#000000;fill-opacity:1;fill-rule:nonzero;stroke:none;stroke-width:1px;stroke-linecap:butt;stroke-linejoin:miter;stroke-opacity:1" />
  <path
     d="M 8.18725,116.66732 C 12.5618,116.89431 0.34848,147.5634 16.63719,152.34742 C 33.30374,157.24242 51.36369,93.72088 66.61228,99.01611 C 87.63019,106.3148 38.60367,192.31054 85.57428,193.16041 C 118.66015,193.75143 106.6091,171.63142 107.18876,96.56289 C 106.80506,96.44681 114.44096,87.6835 115.02504,87.91056 C 121.8532,165.22255 115.86597,195.30083 142.34781,195.01869 C 185.78853,194.56621 149.96489,125.59436 150.78309,108.44175 C 150.56578,109.25321 161.33008,84.57635 160.84236,89.6145 C 162.83678,115.53974 175.01023,101.63158 178.39213,143.92643 C 168.60021,135.58456 178.23817,132.55924 163.66488,117.74667 C 170.50583,152.18726 184.52106,207.68292 152.25329,215.63118 C 134.79321,219.93198 126.35343,214.452 115.14191,194.14277 C 107.0696,217.66872 90.06668,216.83994 79.4254,214.47355 C 28.75709,203.20599 76.1735,122.03082 60.49248,118.80726 C 45.39212,115.70306 39.46857,176.99998 15.66201,169.66576 C -8.87113,162.10768 3.8127,116.44033 8.18725,116.66732 z"
     id="path1334"
     style="fill:#000000;fill-opacity:1;fill-rule:nonzero;stroke:none;stroke-width:1px;stroke-linecap:butt;stroke-linejoin:miter;stroke-opacity:1" />
  <path
     d="M 99.76439,47.368225 C 99.49965,58.592206 97.79547,65.269712 104.4147,65.88764 C 111.04175,66.506299 108.60736,53.874716 109.0212,46.79117 C 109.09435,46.93473 113.07777,42.711596 113.40657,42.713186 C 113.73701,60.900727 113.80114,66.436027 118.38929,66.37772 C 124.89084,66.297413 122.05434,59.858506 121.10549,48.891438 C 121.26717,48.983962 125.24387,43.022364 125.04221,42.852409 C 126.54184,47.99329 130.73384,52.740598 130.61856,52.461419 C 130.82086,52.636605 128.78819,53.266142 127.13215,53.23645 C 127.22569,60.080499 130.75506,74.520874 118.61586,74.327862 C 114.75953,74.266547 113.34042,73.342992 110.61148,70.420741 C 107.54108,74.228569 104.24341,75.026759 101.08071,74.885199 C 91.17325,74.441747 93.77013,47.868298 99.76439,47.368225 z"
     id="path1340"
     style="fill:#000000;fill-opacity:1;fill-rule:nonzero;stroke:none;stroke-width:1px;stroke-linecap:butt;stroke-linejoin:miter;stroke-opacity:1" />
  <path
     d="M 59.147793,47.459615 C 51.806609,53.3552 57.911317,56.813618 61.340595,57.391812 C 67.983577,51.397857 69.442924,47.360808 68.018393,45.76433 C 66.232664,43.763057 63.189418,44.213851 59.147793,47.459615 z M 55.21875,44.875 C 46.408674,54.043187 52.102779,61.089509 56.357626,61.894968 C 52.22794,65.144785 45.642657,69.397831 29.21875,77.9375 C 31.260352,77.615062 34.335595,79.091736 36.28125,78.25 C 46.87161,73.66837 58.050151,66.977434 63.15625,62.75 C 65.04845,62.873222 67.906697,63.524184 70.5625,65.3125 C 70.09265,60.858918 72.871215,59.524479 67.247405,58.795126 C 73.508885,52.318962 75.532593,39.32803 68.84375,39.5 C 63.710705,39.635474 58.229822,41.741534 55.21875,44.875 z"
     id="path10116"
     style="fill:#000000;fill-opacity:1;fill-rule:evenodd" />
  <path
     d="M 107.19676,9.723682 C 107.08304,9.01008 111.30406,1.480371 112.50777,0.772188 C 121.24454,20.975286 113.98852,34.005504 109.95932,38.837281 C 112.10126,20.290591 108.79359,12.629818 107.19676,9.723682 z"
     id="path11876"
     style="fill:#050505" />
  <path
     d="M 140.87566,154.97892 C 138.54774,149.35399 133.5097,147.3586 131.72717,147.79296 C 130.6225,148.06214 129.36136,149.79296 131.26581,153.79204 C 121.24206,145.63336 125.38665,141.00877 136.35021,143.62209 C 139.61649,131.7891 145.49359,134.72037 147.86094,142.72477 C 142.7172,140.47415 142.16643,142.04706 141.74604,142.79204 C 140.5667,144.88197 141.13331,146.11861 145.32929,155.73794 C 146.48876,158.39603 148.59844,162.17454 144.72837,165.43899 C 144.09233,160.57896 142.75495,160.02383 140.87566,154.97892 z M 127.42146,134.92784 C 127.10223,132.13124 128.36938,131.70559 129.66747,131.62519 C 131.34235,131.52145 131.85552,133.50096 132.19835,133.11317 C 133.16983,132.01429 132.96561,131.11686 129.50416,126.33846 C 126.38665,122.03486 124.84615,117.42125 125.4691,115.32786 C 128.17984,106.21855 124.66853,113.64667 130.14633,121.80139 C 132.25643,124.94266 138.35017,130.95496 133.85392,136.36272 C 131.98096,138.61538 127.78472,138.1101 127.42146,134.92784 z"
     id="path11890"
     style="fill:#000000;fill-opacity:1" />
  <path
     d="M 83.22419,155.54322 C 85.55211,149.91829 90.59015,147.9229 92.37268,148.35726 C 93.47735,148.62644 94.73849,150.35726 92.83404,154.35634 C 102.85779,146.19766 98.7132,141.57307 87.74964,144.18639 C 84.48336,132.3534 78.60626,135.28467 76.23891,143.28907 C 81.38265,141.03845 81.93342,142.61136 82.35381,143.35634 C 83.53315,145.44627 82.96654,146.68291 78.77056,156.30224 C 77.61109,158.96033 75.50141,162.73884 79.37148,166.00329 C 80.00752,161.14326 81.3449,160.58813 83.22419,155.54322 z M 96.67839,135.49214 C 96.99762,132.69554 95.73047,132.26989 94.43238,132.18949 C 92.7575,132.08575 92.24433,134.06526 91.9015,133.67747 C 90.93002,132.57859 91.13424,131.68116 94.59569,126.90276 C 97.7132,122.59916 99.2537,117.98555 98.63075,115.89216 C 95.92001,106.78285 99.43132,114.21097 93.95352,122.36569 C 91.84342,125.50696 85.74968,131.51926 90.24593,136.92702 C 92.11889,139.17968 96.31513,138.6744 96.67839,135.49214 z"
     id="path16275"
     style="fill:#000000;fill-opacity:1" />
</svg>
